<svg width="127" height="49" fill="none" xmlns="http://www.w3.org/2000/svg"><path d="M9.209 22.957h1.344v2.86l2.254-2.86h1.609l-2.736 3.242 2.736 3.353h-1.609l-2.254-2.888v2.888H9.21v-6.595zm14.323 0h1.745c.453 0 2.52 0 2.52 1.738a1.37 1.37 0 01-.794 1.257 1.636 1.636 0 011.236 1.594c0 .943-.568 2.006-2.893 2.006h-1.814v-6.595zm1.972 2.54c.881 0 .943-.51.943-.677 0-.644-.656-.68-.943-.68h-.628v1.357h.628zm.235 2.87c.156 0 1.146 0 1.146-.83 0-.25-.096-.854-1.146-.854h-.872v1.683h.872zm14.146-5.41h1.078l3.02 6.603h-1.48l-.746-1.703H39.09l-.745 1.703h-1.48l3.02-6.603zm1.363 3.707l-.825-1.924-.823 1.924h1.648zm11.717-3.707h2.03c2.323 0 2.594 1.434 2.594 2.059 0 .827-.49 2.04-2.594 2.04h-.686v2.496h-1.344v-6.595zm1.344 2.915h.795c.35 0 1.146-.055 1.146-.866 0-.811-.795-.865-1.146-.865h-.795v1.73zm13.117-1.732h-1.342v-1.178h4.03v1.179H68.77v5.424h-1.344V24.14zm13.637-1.183h1.08l3.019 6.603H83.68l-.745-1.703h-2.66l-.745 1.703h-1.48l3.013-6.603zm1.363 3.707l-.823-1.924-.823 1.924h1.646zm18.046 2.889h-1.48l-1.97-4.903-1.98 4.903H93.56l2.872-6.603h1.179l2.86 6.603zm10.323-6.596v2.54h1.083c1.794 0 2.402 1.042 2.402 2.032 0 1.203-.99 2.024-2.402 2.024h-2.427V22.95l1.344.007zm0 5.41h1.083c.617 0 1.049-.312 1.049-.838 0-.525-.425-.837-1.049-.837h-1.09l.007 1.675zm4.216-5.41h1.347v6.603h-1.344l-.003-6.603z" fill="#1D1D1B"/><path d="M40.046 19.289h7.8l6.32-13.733V3.372H28.541v7.4h15.63l-4.125 8.517zM8.67 13.075v6.214h7.454V3.372h-2.483L0 8.284 1.766 15.5l6.905-2.425zm72.96 6.214h7.8l6.318-13.733V3.372H70.123v7.4h15.63l-4.123 8.517zm31.252 0h7.801L127 5.556V3.372h-25.625v7.4h15.629l-4.122 8.517zM75.458 33.475l-4.502 9.918h8.119l4.372-9.918h-7.99zm31.247 0l-4.499 9.918h8.116l4.372-9.918h-7.989zm-72.84 0l-4.499 9.918h8.119l4.372-9.918h-7.992zm-17.741 0H8.668v9.918h7.456v-9.918zm29.559 15.136h.62l5.501-13.007h-.62l-5.501 13.007zM64.5 0l-6.897 16.306h.62L65.124 0h-.622z" fill="#93DACF"/></svg>