<svg width="136" height="26" fill="none" xmlns="http://www.w3.org/2000/svg"><path fill-rule="evenodd" clip-rule="evenodd" d="M35.98 22.027h-1.259v3.877H33v-4.849h2.98v.972zm.746-.972h1.732a5.11 5.11 0 011.078.084c.21.035.405.116.564.235.127.1.218.228.262.368.053.22.077.446.071.67v.42c.019.231-.026.463-.13.678a.865.865 0 01-.483.327 2.983 2.983 0 01-.907.117h-.463v1.951h-1.724v-4.849zm1.722.827v1.23h.125c.059.007.12.003.177-.011a.454.454 0 00.156-.072.495.495 0 00.09-.352v-.402c0-.167-.03-.277-.1-.326a1.032 1.032 0 00-.444-.067h-.004zm6.163-.827l-.463 3.208c-.038.36-.116.716-.233 1.064a.692.692 0 01-.19.264.873.873 0 01-.306.172 3.736 3.736 0 01-1.199.134h-1.007v-.629h.1c.14.01.28-.005.413-.042a.153.153 0 00.061-.054.12.12 0 00.02-.072s-.03-.143-.1-.413l-.898-3.651h1.49l.545 3.014.262-3.014h1.5l.005.02zm4.581 4.85H47.47v-3.878h-.514v3.877h-1.723v-4.849h3.958v4.85h.001zm4.915 0h-1.723v-3.878h-.506v3.877h-1.723v-4.849h3.948v4.85h.004zm3.938-4.85l.987 4.85H57.27l-.08-.871h-.615l-.101.87h-1.772l.875-4.849h2.468zm-.907 3.115a43.401 43.401 0 01-.262-2.034c-.171.93-.282 1.608-.321 2.034h.583zm5.952-3.115h1.722l.01 2.044c.322-.008.497-.134.503-.393l.03-.946a.776.776 0 01.048-.375.897.897 0 01.224-.329h1.591a.891.891 0 00-.231.729l.01.826c.01.503-.382.787-1.157.862.775.067 1.168.36 1.157.87l-.01.771c-.033.277.049.554.231.787h-1.59a.865.865 0 01-.23-.327.743.743 0 01-.043-.376v-.946a.326.326 0 00-.037-.16.391.391 0 00-.114-.133.627.627 0 00-.383-.109l-.01 2.052H63.09v-4.849.002zm8.681 2.84c.006.344-.01.69-.05 1.032a1.014 1.014 0 01-.293.553 1.582 1.582 0 01-.664.385 3.138 3.138 0 01-.978.134 3.374 3.374 0 01-.956-.126 1.513 1.513 0 01-.674-.385.971.971 0 01-.302-.552 7.92 7.92 0 01-.05-1.048v-.82a7.968 7.968 0 01.05-1.04c.033-.203.134-.394.292-.552.176-.175.406-.308.664-.385a3.14 3.14 0 01.978-.135c.325-.003.648.04.956.126.264.073.498.207.674.386a.97.97 0 01.302.552c.04.348.057.698.051 1.047v.828zm-1.713-1.592a1.243 1.243 0 00-.05-.436.193.193 0 00-.087-.074.244.244 0 00-.123-.018.27.27 0 00-.113.017.225.225 0 00-.089.059.796.796 0 00-.07.452v2.26c-.011.174.006.348.05.517.03.067.101.104.222.104a.24.24 0 00.136-.026.18.18 0 00.085-.092c.043-.18.06-.362.05-.545v-2.217h-.01zm7.936-1.248v4.85h-1.5V22.63l-.603 3.274h-1.069l-.634-3.201v3.201h-1.5v-4.849h2.225l.211 1.033.233 1.231.392-2.26 2.246-.004zm4.935 4.85h-1.723v-3.878h-.515v3.877h-1.723v-4.849h3.948v4.85h.013zm3.937-4.85l.987 4.85h-1.762l-.081-.871h-.615l-.1.87h-1.773l.876-4.849h2.468zm-.917 3.115a43.386 43.386 0 01-.262-2.034c-.171.93-.282 1.608-.322 2.034h.584zm6.425-3.115v4.85h-1.71V23.87h-.515v2.034h-1.721v-4.849h1.723v1.735h.514v-1.733l1.709-.002zm4.803 4.85h-1.44V23.7l-.888 2.204h-1.5v-4.849h1.43v2.186l.965-2.186h1.441v4.85l-.008-.002zm4.814 0h-1.44V23.7l-.897 2.203h-1.5v-4.849h1.44v2.186l.965-2.186H102v4.85h-.009zM100.521 20h.695a.889.889 0 01-.321.653 1.48 1.48 0 01-.836.25 1.48 1.48 0 01-.836-.25A.892.892 0 0198.9 20h.694c.03.277.182.413.464.413.281 0 .433-.134.463-.413z" fill="url(#paint0_linear_1112_515)"/><path fill-rule="evenodd" clip-rule="evenodd" d="M5.32 9.26H4.176v6.054H0V.884h4.177V6.05h1.142c-.02-.909.05-1.817.212-2.713.114-.53.403-1.015.83-1.393.439-.38.978-.653 1.567-.792a9.304 9.304 0 012.215-.237 8.752 8.752 0 012.286.255 3.49 3.49 0 011.578.864c.432.439.707.985.788 1.567.135 1.085.19 2.177.162 3.268V9.32a21.886 21.886 0 01-.162 3.278 2.714 2.714 0 01-.788 1.566 3.646 3.646 0 01-1.598.898 8.4 8.4 0 01-2.275.273 8.747 8.747 0 01-2.143-.237 3.996 3.996 0 01-1.538-.765 2.576 2.576 0 01-.82-1.128 6.339 6.339 0 01-.249-1.502 37.25 37.25 0 01-.061-2.385v-.064l-.004.006zm5.47 2.503V4.617a4.903 4.903 0 00-.1-1.248.452.452 0 00-.203-.261.542.542 0 00-.344-.075.582.582 0 00-.296.064.506.506 0 00-.209.2 3.41 3.41 0 00-.152 1.329v7.401c-.012.293.03.585.125.865a.46.46 0 00.2.23c.094.055.205.08.316.07a.586.586 0 00.292-.056.513.513 0 00.213-.19c.144-.38.2-.782.162-1.183h-.004zm5.593 3.55V3.498h6.28v2.04h-2.297v9.778l-3.983-.001zm16.836-8.13h-4.16v-2.51a4.342 4.342 0 00-.131-1.365.546.546 0 00-.245-.22.626.626 0 00-.341-.053.683.683 0 00-.39.065.588.588 0 00-.268.263 4.54 4.54 0 00-.142 1.429v6.7c-.027.463.02.925.142 1.375a.56.56 0 00.252.255c.113.057.244.08.372.064a.635.635 0 00.363-.068.544.544 0 00.244-.251c.126-.492.173-.998.141-1.502v-1.82h4.167v.556a9.976 9.976 0 01-.354 3.169c-.294.692-.844 1.271-1.558 1.64a5.829 5.829 0 01-2.963.7 6.709 6.709 0 01-3.023-.6c-.74-.349-1.305-.939-1.578-1.65a9.96 9.96 0 01-.384-3.177V5.968c-.014-.782.028-1.564.125-2.34a3.126 3.126 0 01.708-1.503 3.863 3.863 0 011.62-1.14 7.41 7.41 0 015.44.224c.72.349 1.28.917 1.578 1.602.298.97.424 1.974.374 2.978v1.398l.011-.003zm9.294-3.687v2.477h-2.286v9.34h-3.985v-9.34h-2.296V3.496h8.567zm4.864 0l-.071 1.048a3.684 3.684 0 011.174-.947 3.154 3.154 0 011.405-.31 2.85 2.85 0 011.608.45c.41.244.71.612.849 1.037.14.657.197 1.326.172 1.994v4.98c.032.77-.039 1.54-.212 2.293-.134.445-.445.83-.873 1.084a2.942 2.942 0 01-1.588.4 3.025 3.025 0 01-1.372-.31 3.566 3.566 0 01-1.152-.928V17h-3.99V3.497h4.05zm1.142 3.433a5.345 5.345 0 00-.09-1.33c-.062-.155-.223-.237-.5-.237a.525.525 0 00-.302.055.45.45 0 00-.203.21 4.565 4.565 0 00-.11 1.292v4.897c-.03.45.013.9.124 1.338a.459.459 0 00.209.211.535.535 0 00.308.053c.249 0 .413-.082.475-.246a4.53 4.53 0 00.09-1.192V6.928zm14.35.72v2.895a10.83 10.83 0 01-.182 2.34c-.131.51-.39.987-.758 1.393a3.51 3.51 0 01-1.497.956 6.475 6.475 0 01-2.104.31 8.042 8.042 0 01-2.245-.264 3.035 3.035 0 01-1.425-.792 2.976 2.976 0 01-.728-1.283 8.922 8.922 0 01-.212-2.258v-3.04a6.754 6.754 0 01.394-2.577 3.049 3.049 0 011.425-1.485 5.49 5.49 0 012.63-.561 6.425 6.425 0 012.305.364c.526.177 1 .462 1.383.832.382.37.664.816.822 1.301.153.615.218 1.245.192 1.875v-.007zm-3.99-.893a3.563 3.563 0 00-.112-1.148.43.43 0 00-.19-.186.5.5 0 00-.275-.05.524.524 0 00-.278.051.456.456 0 00-.197.185 3.194 3.194 0 00-.125 1.148v5.335a3.07 3.07 0 00.125 1.093.52.52 0 00.19.182.585.585 0 00.537.015.52.52 0 00.203-.17c.1-.326.138-.665.111-1.002V6.756h.01zm15.215 8.558h-3.492V8.923l-2.782 6.39h-3.64V3.498h3.478v6.337l2.73-6.337h3.692v11.818l.014-.001zM70.24.009h1.679a2.876 2.876 0 01-.79 1.948c-.256.249-.57.444-.92.572-.35.127-.726.184-1.102.166A2.768 2.768 0 0168 2.529a2.533 2.533 0 01-.916-.581A2.917 2.917 0 0166.306 0h1.68c.08.81.454 1.22 1.121 1.22.668 0 1.052-.391 1.133-1.21zm14.69 15.306h-3.478V8.75l-2.164 6.564h-3.65V.885h3.478v6.512L81.453.885h3.478v14.43zm10.922 0h-3.975v-4.361h-1.435v4.36h-3.965V3.498h3.965v4.251h1.435V3.496h3.975v11.818zm10.689-3.114c.058.444.01.894-.14 1.32a3.092 3.092 0 01-.733 1.15 7.19 7.19 0 01-3.802.656h-4.581V3.497h4.723a5.61 5.61 0 013.337.72c.338.33.594.72.751 1.147.157.426.212.877.16 1.323.027.29-.012.58-.116.855a2.048 2.048 0 01-.487.741 2.338 2.338 0 01-.777.502 2.55 2.55 0 01-.936.178 3.336 3.336 0 011.9.856c.469.457.72 1.062.697 1.684v.7l.004-.002zm-5.289-4.316c.607 0 .98-.073 1.112-.209.164-.243.235-.527.202-.81a.846.846 0 00-.033-.37.91.91 0 00-.189-.33 1.961 1.961 0 00-1.092-.192v1.911zm1.314 3.76v-.4c0-.51-.071-.829-.222-.956a1.96 1.96 0 00-1.092-.19v2.74c.37.037.742-.037 1.061-.209.209-.291.298-.64.25-.983l.003-.002zm14.188-2.03h-5.178v2.558c-.03.35.015.702.131 1.038a.48.48 0 00.211.18.55.55 0 00.288.044c.124.013.25-.01.36-.065a.554.554 0 00.247-.245 3.1 3.1 0 00.152-1.192v-1.557h3.793v.873a7.174 7.174 0 01-.152 1.684 3.337 3.337 0 01-.719 1.257 3.445 3.445 0 01-1.435 1.001 5.99 5.99 0 01-2.174.337 7.001 7.001 0 01-2.235-.328 3.568 3.568 0 01-1.506-.898 3.136 3.136 0 01-.749-1.265 7.34 7.34 0 01-.202-2.012v-3.45a5.261 5.261 0 01.465-2.44 3.104 3.104 0 011.527-1.375 5.859 5.859 0 012.427-.474 5.991 5.991 0 012.781.574 3.33 3.33 0 011.537 1.52c.336.856.487 1.761.445 2.668v1.566l-.014.001zm-4.004-1.92V6.83a3.969 3.969 0 00-.111-1.184.403.403 0 00-.173-.2.47.47 0 00-.273-.063c-.273 0-.445.073-.516.224-.096.404-.13.818-.101 1.23V7.7h1.174v-.007zm14.137.263h-3.771V6.593a2.334 2.334 0 00-.131-.965.448.448 0 00-.192-.196.515.515 0 00-.283-.058.5.5 0 00-.272.045.43.43 0 00-.193.18 2.529 2.529 0 00-.125 1v5.572c-.02.324.042.648.182.946a.529.529 0 00.21.231.614.614 0 00.316.088.576.576 0 00.336-.079.487.487 0 00.21-.249 3.71 3.71 0 00.141-1.247V10.45h3.56a17.07 17.07 0 01-.111 2.12 3.243 3.243 0 01-.657 1.46 3.469 3.469 0 01-1.457 1.123 5.71 5.71 0 01-2.225.373 5.793 5.793 0 01-2.68-.519 2.997 2.997 0 01-1.406-1.465 6.893 6.893 0 01-.404-2.668V7.513a5.957 5.957 0 01.334-2.276 3.07 3.07 0 011.436-1.366 5.5 5.5 0 012.67-.6 5.632 5.632 0 012.67.591c.674.328 1.197.86 1.477 1.503.276.841.399 1.717.364 2.594h.001zM136 3.498v2.476h-2.286v9.34h-3.991v-9.34h-2.296V3.497H136z" fill="url(#paint1_linear_1112_515)"/><defs><linearGradient id="paint0_linear_1112_515" x1="33" y1="23.006" x2="102" y2="23.006" gradientUnits="userSpaceOnUse"><stop stop-color="#183C6E"/><stop offset=".503" stop-color="#004B96"/><stop offset="1" stop-color="#163D6E"/></linearGradient><linearGradient id="paint1_linear_1112_515" x1="0" y1="8.5" x2="136" y2="8.5" gradientUnits="userSpaceOnUse"><stop stop-color="#183C6E"/><stop offset=".503" stop-color="#004B96"/><stop offset="1" stop-color="#163D6E"/></linearGradient></defs></svg>